<svg width="34" height="32" viewBox="0 0 34 32" fill="none" xmlns="http://www.w3.org/2000/svg">
<g id="Group 6">
<path id="primary" d="M24 22.5V28.5C24 28.8978 23.842 29.2794 23.5607 29.5607C23.2794 29.842 22.8978 30 22.5 30H3C2.60218 30 2.22064 29.842 1.93934 29.5607C1.65804 29.2794 1.5 28.8978 1.5 28.5V4.5C1.5 4.10218 1.65804 3.72064 1.93934 3.43934C2.22064 3.15804 2.60218 3 3 3H13.5" stroke="#1C3144" stroke-width="3" stroke-linecap="round" stroke-linejoin="round"/>
<path id="primary_2" d="M18 24H7.5M13.5 18H7.5" stroke="#1C3144" stroke-width="3" stroke-linecap="round" stroke-linejoin="round"/>
<path id="Vector" fill-rule="evenodd" clip-rule="evenodd" d="M23.0641 2.07016C20.8761 2.07185 18.7783 2.94267 17.2323 4.49104C15.6864 6.03941 14.8188 8.1385 14.8205 10.3265C14.8213 11.4099 15.0355 12.4826 15.4509 13.4832C15.8663 14.4838 16.4747 15.3928 17.2413 16.1583C18.008 16.9238 18.918 17.5308 19.9192 17.9446C20.9205 18.3585 21.9934 18.571 23.0769 18.5702C24.1603 18.5693 25.2329 18.3551 26.2335 17.9397C27.2341 17.5244 28.1431 16.916 28.9086 16.1493C29.6741 15.3826 30.2811 14.4727 30.6949 13.4714C31.1088 12.4702 31.3213 11.3972 31.3205 10.3138C31.3188 8.12576 30.448 6.02801 28.8996 4.48203C27.3512 2.93604 25.2521 2.06847 23.0641 2.07016ZM15.7728 3.03376C17.7053 1.09829 20.3275 0.00977107 23.0625 0.00765813C25.7976 0.00554518 28.4214 1.09001 30.3569 3.02249C32.2924 4.95497 33.3809 7.57715 33.383 10.3122C33.384 11.6665 33.1183 13.0077 32.601 14.2592C32.0838 15.5108 31.325 16.6482 30.3682 17.6066C29.4113 18.5649 28.275 19.3254 27.0243 19.8446C25.7735 20.3639 24.4327 20.6316 23.0784 20.6327C21.7242 20.6337 20.383 20.368 19.1314 19.8507C17.8798 19.3335 16.7424 18.5747 15.7841 17.6178C14.8257 16.661 14.0652 15.5247 13.546 14.274C13.0268 13.0232 12.759 11.6824 12.758 10.3281C12.7559 7.59309 13.8403 4.96922 15.7728 3.03376ZM23.0665 5.16391C23.636 5.16347 24.0981 5.62482 24.0985 6.19437L24.1014 9.89221L26.8953 12.6818C27.2983 13.0842 27.2988 13.7371 26.8964 14.1402C26.494 14.5432 25.841 14.5437 25.438 14.1413L22.3418 11.0499C22.1483 10.8567 22.0394 10.5945 22.0392 10.321L22.036 6.19596C22.0356 5.62642 22.497 5.16435 23.0665 5.16391Z" fill="#1C3144"/>
</g>
</svg>
